<svg width="115" height="56" viewBox="0 0 115 56" fill="none" xmlns="http://www.w3.org/2000/svg">
<path fill-rule="evenodd" clip-rule="evenodd" d="M114.826 55.7661L52 0H93.044L114.826 19.334V55.7661Z" fill="#7F34BA"/>
<path d="M2.50488 25.0752V33H1.14258V25.0752H2.50488ZM1.04004 22.9731C1.04004 22.7534 1.10596 22.5679 1.23779 22.4165C1.37451 22.2651 1.57471 22.1895 1.83838 22.1895C2.09717 22.1895 2.29492 22.2651 2.43164 22.4165C2.57324 22.5679 2.64404 22.7534 2.64404 22.9731C2.64404 23.1831 2.57324 23.3638 2.43164 23.5151C2.29492 23.6616 2.09717 23.7349 1.83838 23.7349C1.57471 23.7349 1.37451 23.6616 1.23779 23.5151C1.10596 23.3638 1.04004 23.1831 1.04004 22.9731ZM6.03516 26.7671V33H4.68018V25.0752H5.96191L6.03516 26.7671ZM5.71289 28.7373L5.14893 28.7153C5.15381 28.1733 5.23438 27.6729 5.39062 27.2139C5.54688 26.75 5.7666 26.3472 6.0498 26.0054C6.33301 25.6636 6.66992 25.3999 7.06055 25.2144C7.45605 25.0239 7.89307 24.9287 8.37158 24.9287C8.76221 24.9287 9.11377 24.9824 9.42627 25.0898C9.73877 25.1924 10.0049 25.3584 10.2246 25.5879C10.4492 25.8174 10.6201 26.1152 10.7373 26.4814C10.8545 26.8428 10.9131 27.2847 10.9131 27.8071V33H9.55078V27.7925C9.55078 27.3774 9.48975 27.0454 9.36768 26.7964C9.24561 26.5425 9.06738 26.3594 8.83301 26.2471C8.59863 26.1299 8.31055 26.0713 7.96875 26.0713C7.63184 26.0713 7.32422 26.1421 7.0459 26.2837C6.77246 26.4253 6.53564 26.6206 6.33545 26.8696C6.14014 27.1187 5.98633 27.4043 5.87402 27.7266C5.7666 28.0439 5.71289 28.3809 5.71289 28.7373ZM15.3809 31.7769L17.5488 25.0752H18.9331L16.084 33H15.1758L15.3809 31.7769ZM13.5718 25.0752L15.8057 31.8135L15.9595 33H15.0513L12.1802 25.0752H13.5718ZM21.709 25.0752V33H20.3467V25.0752H21.709ZM20.2441 22.9731C20.2441 22.7534 20.3101 22.5679 20.4419 22.4165C20.5786 22.2651 20.7788 22.1895 21.0425 22.1895C21.3013 22.1895 21.499 22.2651 21.6357 22.4165C21.7773 22.5679 21.8481 22.7534 21.8481 22.9731C21.8481 23.1831 21.7773 23.3638 21.6357 23.5151C21.499 23.6616 21.3013 23.7349 21.0425 23.7349C20.7788 23.7349 20.5786 23.6616 20.4419 23.5151C20.3101 23.3638 20.2441 23.1831 20.2441 22.9731ZM27.2021 25.0752V26.1152H22.9175V25.0752H27.2021ZM24.3677 23.1489H25.7227V31.0371C25.7227 31.3057 25.7642 31.5083 25.8472 31.645C25.9302 31.7817 26.0376 31.8721 26.1694 31.916C26.3013 31.96 26.4429 31.9819 26.5942 31.9819C26.7065 31.9819 26.8237 31.9722 26.9458 31.9526C27.0728 31.9282 27.168 31.9087 27.2314 31.894L27.2388 33C27.1313 33.0342 26.9897 33.0659 26.814 33.0952C26.6431 33.1294 26.4355 33.1465 26.1914 33.1465C25.8594 33.1465 25.5542 33.0806 25.2759 32.9487C24.9976 32.8169 24.7754 32.5972 24.6094 32.2896C24.4482 31.9771 24.3677 31.5571 24.3677 31.0298V23.1489ZM32.0801 33.1465C31.5283 33.1465 31.0278 33.0537 30.5786 32.8682C30.1343 32.6777 29.751 32.4116 29.4287 32.0698C29.1113 31.728 28.8672 31.3228 28.6963 30.854C28.5254 30.3853 28.4399 29.8726 28.4399 29.3159V29.0083C28.4399 28.3638 28.5352 27.79 28.7256 27.2871C28.916 26.7793 29.1748 26.3496 29.502 25.998C29.8291 25.6465 30.2002 25.3804 30.6152 25.1997C31.0303 25.019 31.46 24.9287 31.9043 24.9287C32.4707 24.9287 32.959 25.0264 33.3691 25.2217C33.7842 25.417 34.1235 25.6904 34.3872 26.042C34.6509 26.3887 34.8462 26.7988 34.9731 27.2725C35.1001 27.7412 35.1636 28.2539 35.1636 28.8105V29.4185H29.2456V28.3125H33.8086V28.21C33.7891 27.8584 33.7158 27.5166 33.5889 27.1846C33.4668 26.8525 33.2715 26.5791 33.0029 26.3643C32.7344 26.1494 32.3682 26.042 31.9043 26.042C31.5967 26.042 31.3135 26.1079 31.0547 26.2397C30.7959 26.3667 30.5737 26.5571 30.3882 26.811C30.2026 27.0649 30.0586 27.375 29.9561 27.7412C29.8535 28.1074 29.8022 28.5298 29.8022 29.0083V29.3159C29.8022 29.6919 29.8535 30.0459 29.9561 30.3779C30.0635 30.7051 30.2173 30.9932 30.4175 31.2422C30.6226 31.4912 30.8691 31.6865 31.1572 31.8281C31.4502 31.9697 31.7822 32.0405 32.1533 32.0405C32.6318 32.0405 33.0371 31.9429 33.3691 31.7476C33.7012 31.5522 33.9917 31.291 34.2407 30.9639L35.061 31.6157C34.8901 31.8745 34.6729 32.1211 34.4092 32.3555C34.1455 32.5898 33.8208 32.7803 33.4351 32.9268C33.0542 33.0732 32.6025 33.1465 32.0801 33.1465ZM43.6377 32.0332C43.96 32.0332 44.2578 31.9673 44.5312 31.8354C44.8047 31.7036 45.0293 31.5229 45.2051 31.2935C45.3809 31.0591 45.481 30.793 45.5054 30.4951H46.7944C46.77 30.9639 46.6113 31.4009 46.3184 31.8062C46.0303 32.2065 45.6519 32.5312 45.1831 32.7803C44.7144 33.0244 44.1992 33.1465 43.6377 33.1465C43.042 33.1465 42.522 33.0415 42.0776 32.8315C41.6382 32.6216 41.272 32.3335 40.979 31.9673C40.6909 31.6011 40.4736 31.1812 40.3271 30.7075C40.1855 30.229 40.1147 29.7236 40.1147 29.1914V28.8838C40.1147 28.3516 40.1855 27.8486 40.3271 27.375C40.4736 26.8965 40.6909 26.4741 40.979 26.1079C41.272 25.7417 41.6382 25.4536 42.0776 25.2437C42.522 25.0337 43.042 24.9287 43.6377 24.9287C44.2578 24.9287 44.7998 25.0557 45.2637 25.3096C45.7275 25.5586 46.0913 25.9004 46.355 26.335C46.6235 26.7646 46.77 27.2529 46.7944 27.7998H45.5054C45.481 27.4727 45.3882 27.1772 45.2271 26.9136C45.0708 26.6499 44.856 26.4399 44.5825 26.2837C44.314 26.1226 43.999 26.042 43.6377 26.042C43.2227 26.042 42.8735 26.125 42.5903 26.291C42.312 26.4521 42.0898 26.6719 41.9238 26.9502C41.7627 27.2236 41.6455 27.5288 41.5723 27.8657C41.5039 28.1978 41.4697 28.5371 41.4697 28.8838V29.1914C41.4697 29.5381 41.5039 29.8799 41.5723 30.2168C41.6406 30.5537 41.7554 30.8589 41.9165 31.1323C42.0825 31.4058 42.3047 31.6255 42.583 31.7915C42.8662 31.9526 43.2178 32.0332 43.6377 32.0332ZM47.959 29.1255V28.957C47.959 28.3857 48.042 27.856 48.208 27.3677C48.374 26.8745 48.6133 26.4473 48.9258 26.0859C49.2383 25.7197 49.6167 25.4365 50.061 25.2363C50.5054 25.0312 51.0034 24.9287 51.5552 24.9287C52.1118 24.9287 52.6123 25.0312 53.0566 25.2363C53.5059 25.4365 53.8867 25.7197 54.1992 26.0859C54.5166 26.4473 54.7583 26.8745 54.9243 27.3677C55.0903 27.856 55.1733 28.3857 55.1733 28.957V29.1255C55.1733 29.6968 55.0903 30.2266 54.9243 30.7148C54.7583 31.2031 54.5166 31.6304 54.1992 31.9966C53.8867 32.3579 53.5083 32.6411 53.064 32.8462C52.6245 33.0464 52.1265 33.1465 51.5698 33.1465C51.0132 33.1465 50.5127 33.0464 50.0684 32.8462C49.624 32.6411 49.2432 32.3579 48.9258 31.9966C48.6133 31.6304 48.374 31.2031 48.208 30.7148C48.042 30.2266 47.959 29.6968 47.959 29.1255ZM49.314 28.957V29.1255C49.314 29.521 49.3604 29.8945 49.4531 30.2461C49.5459 30.5928 49.6851 30.9004 49.8706 31.1689C50.061 31.4375 50.2979 31.6499 50.5811 31.8062C50.8643 31.9575 51.1938 32.0332 51.5698 32.0332C51.9409 32.0332 52.2656 31.9575 52.5439 31.8062C52.8271 31.6499 53.0615 31.4375 53.2471 31.1689C53.4326 30.9004 53.5718 30.5928 53.6646 30.2461C53.7622 29.8945 53.811 29.521 53.811 29.1255V28.957C53.811 28.5664 53.7622 28.1978 53.6646 27.8511C53.5718 27.4995 53.4302 27.1895 53.2397 26.9209C53.0542 26.6475 52.8198 26.4326 52.5366 26.2764C52.2583 26.1201 51.9312 26.042 51.5552 26.042C51.1841 26.042 50.8569 26.1201 50.5737 26.2764C50.2954 26.4326 50.061 26.6475 49.8706 26.9209C49.6851 27.1895 49.5459 27.4995 49.4531 27.8511C49.3604 28.1978 49.314 28.5664 49.314 28.957ZM61.8677 31.4619V21.75H63.23V33H61.9849L61.8677 31.4619ZM56.5356 29.1255V28.9717C56.5356 28.3662 56.6089 27.8169 56.7554 27.3237C56.9067 26.8257 57.1191 26.3984 57.3926 26.042C57.6709 25.6855 58.0005 25.4121 58.3813 25.2217C58.7671 25.0264 59.1968 24.9287 59.6704 24.9287C60.1685 24.9287 60.603 25.0166 60.9741 25.1924C61.3501 25.3633 61.6675 25.6147 61.9263 25.9468C62.1899 26.2739 62.3975 26.6694 62.5488 27.1333C62.7002 27.5972 62.8052 28.1221 62.8638 28.708V29.3818C62.8101 29.9629 62.7051 30.4854 62.5488 30.9492C62.3975 31.4131 62.1899 31.8086 61.9263 32.1357C61.6675 32.4629 61.3501 32.7144 60.9741 32.8901C60.5981 33.061 60.1587 33.1465 59.6558 33.1465C59.1919 33.1465 58.7671 33.0464 58.3813 32.8462C58.0005 32.646 57.6709 32.3652 57.3926 32.0039C57.1191 31.6426 56.9067 31.2178 56.7554 30.7295C56.6089 30.2363 56.5356 29.7017 56.5356 29.1255ZM57.8979 28.9717V29.1255C57.8979 29.521 57.937 29.8921 58.0151 30.2388C58.0981 30.5854 58.2251 30.8906 58.396 31.1543C58.5669 31.418 58.7842 31.6255 59.0479 31.7769C59.3115 31.9233 59.6265 31.9966 59.9927 31.9966C60.4419 31.9966 60.8105 31.9014 61.0986 31.7109C61.3916 31.5205 61.626 31.269 61.8018 30.9565C61.9775 30.644 62.1143 30.3047 62.2119 29.9385V28.1733C62.1533 27.9048 62.0679 27.646 61.9556 27.397C61.8481 27.1431 61.7065 26.9185 61.5308 26.7231C61.3599 26.5229 61.1475 26.3643 60.8936 26.2471C60.6445 26.1299 60.3491 26.0713 60.0073 26.0713C59.6362 26.0713 59.3164 26.1494 59.0479 26.3057C58.7842 26.457 58.5669 26.667 58.396 26.9355C58.2251 27.1992 58.0981 27.5068 58.0151 27.8584C57.937 28.2051 57.8979 28.5762 57.8979 28.9717ZM68.6279 33.1465C68.0762 33.1465 67.5757 33.0537 67.1265 32.8682C66.6821 32.6777 66.2988 32.4116 65.9766 32.0698C65.6592 31.728 65.415 31.3228 65.2441 30.854C65.0732 30.3853 64.9878 29.8726 64.9878 29.3159V29.0083C64.9878 28.3638 65.083 27.79 65.2734 27.2871C65.4639 26.7793 65.7227 26.3496 66.0498 25.998C66.377 25.6465 66.748 25.3804 67.1631 25.1997C67.5781 25.019 68.0078 24.9287 68.4521 24.9287C69.0186 24.9287 69.5068 25.0264 69.917 25.2217C70.332 25.417 70.6714 25.6904 70.9351 26.042C71.1987 26.3887 71.394 26.7988 71.521 27.2725C71.6479 27.7412 71.7114 28.2539 71.7114 28.8105V29.4185H65.7935V28.3125H70.3564V28.21C70.3369 27.8584 70.2637 27.5166 70.1367 27.1846C70.0146 26.8525 69.8193 26.5791 69.5508 26.3643C69.2822 26.1494 68.916 26.042 68.4521 26.042C68.1445 26.042 67.8613 26.1079 67.6025 26.2397C67.3438 26.3667 67.1216 26.5571 66.936 26.811C66.7505 27.0649 66.6064 27.375 66.5039 27.7412C66.4014 28.1074 66.3501 28.5298 66.3501 29.0083V29.3159C66.3501 29.6919 66.4014 30.0459 66.5039 30.3779C66.6113 30.7051 66.7651 30.9932 66.9653 31.2422C67.1704 31.4912 67.417 31.6865 67.7051 31.8281C67.998 31.9697 68.3301 32.0405 68.7012 32.0405C69.1797 32.0405 69.585 31.9429 69.917 31.7476C70.249 31.5522 70.5396 31.291 70.7886 30.9639L71.6089 31.6157C71.438 31.8745 71.2207 32.1211 70.957 32.3555C70.6934 32.5898 70.3687 32.7803 69.9829 32.9268C69.6021 33.0732 69.1504 33.1465 68.6279 33.1465Z" fill="black" fill-opacity="0.39"/>
</svg>
