<svg width="63" height="56" viewBox="0 0 63 56" fill="none" xmlns="http://www.w3.org/2000/svg">
<path fill-rule="evenodd" clip-rule="evenodd" d="M62.8255 55.7661L0 0H41.044L62.8255 19.334V55.7661Z" fill="#7F34BA"/>
<path d="M27.1968 7.18303L24.0626 10.7588L23.4479 10.22L26.5821 6.64425L27.1968 7.18303ZM27.3672 5.65524C27.4541 5.5561 27.5572 5.49845 27.6766 5.48229C27.7981 5.46806 27.9184 5.51309 28.0373 5.61737C28.1541 5.71972 28.2134 5.83208 28.2152 5.95445C28.2193 6.07875 28.1778 6.19047 28.0909 6.28961C28.0079 6.38435 27.9045 6.43786 27.7807 6.45016C27.6611 6.46218 27.5429 6.41702 27.4262 6.31467C27.3072 6.21039 27.2458 6.09817 27.2421 5.978C27.2424 5.85756 27.2842 5.74998 27.3672 5.65524ZM28.1206 9.34261L25.6555 12.1549L25.0441 11.6191L28.1783 8.04334L28.7566 8.55025L28.1206 9.34261ZM27.1959 10.1041L26.9502 9.87118C27.1667 9.62856 27.401 9.4346 27.653 9.2893C27.907 9.14179 28.1655 9.04693 28.4284 9.00472C28.6914 8.9625 28.9477 8.97677 29.1973 9.04754C29.4511 9.11804 29.6859 9.24791 29.9018 9.43716C30.0781 9.59165 30.2155 9.75492 30.314 9.92698C30.4144 10.0968 30.4688 10.277 30.4772 10.4674C30.4878 10.6598 30.4471 10.8618 30.3552 11.0734C30.2651 11.2828 30.1168 11.5053 29.9102 11.7411L27.8565 14.0841L27.2418 13.5453L29.3013 11.1957C29.4654 11.0084 29.5692 10.8345 29.6126 10.6738C29.658 10.511 29.65 10.3579 29.5886 10.2145C29.5292 10.0689 29.4224 9.92856 29.2682 9.79338C29.1162 9.66014 28.9494 9.57042 28.7678 9.52424C28.5884 9.47999 28.4043 9.47446 28.2155 9.50764C28.0289 9.54276 27.8465 9.61082 27.6684 9.71181C27.4944 9.81253 27.3369 9.94331 27.1959 10.1041ZM30.3561 15.2992L33.9847 13.1328L34.6093 13.6802L30.1896 16.1292L29.7798 15.77L30.3561 15.2992ZM32.1903 11.5599L30.5333 15.4837L30.1334 16.0799L29.7236 15.7207L31.5624 11.0095L32.1903 11.5599ZM35.8618 14.7781L32.7276 18.3538L32.113 17.815L35.2471 14.2393L35.8618 14.7781ZM36.0322 13.2503C36.1191 13.1511 36.2222 13.0935 36.3416 13.0773C36.4631 13.0631 36.5834 13.1081 36.7024 13.2124C36.8191 13.3148 36.8784 13.4271 36.8803 13.5495C36.8843 13.6738 36.8428 13.7855 36.7559 13.8846C36.6729 13.9794 36.5695 14.0329 36.4458 14.0452C36.3261 14.0572 36.2079 14.0121 36.0912 13.9097C35.9722 13.8054 35.9108 13.6932 35.9071 13.573C35.9075 13.4526 35.9492 13.345 36.0322 13.2503ZM38.3404 16.9506L37.929 17.4198L35.9958 15.7253L36.4071 15.256L38.3404 16.9506ZM37.8233 14.9604L38.4346 15.4963L35.3149 19.0555C35.2087 19.1767 35.1473 19.2845 35.1307 19.379C35.1141 19.4735 35.1268 19.5568 35.1689 19.6288C35.211 19.7007 35.2662 19.7666 35.3345 19.8265C35.3852 19.8709 35.4419 19.9129 35.5047 19.9523C35.5717 19.9915 35.6224 20.0204 35.6568 20.0389L35.2227 20.5408C35.1607 20.5137 35.0843 20.472 34.9934 20.4157C34.9028 20.3636 34.8024 20.2892 34.6922 20.1926C34.5424 20.0613 34.4308 19.9109 34.3573 19.7413C34.2839 19.5718 34.2705 19.3848 34.3173 19.1803C34.3682 18.9756 34.4979 18.7542 34.7065 18.5163L37.8233 14.9604ZM37.3492 22.5216C37.1003 22.3033 36.9111 22.0635 36.7818 21.8022C36.6566 21.5405 36.5889 21.2688 36.5787 20.9872C36.5707 20.7074 36.6208 20.428 36.7291 20.1489C36.8374 19.8698 37.0016 19.6047 37.2217 19.3535L37.3434 19.2147C37.5983 18.9239 37.8681 18.7027 38.153 18.5511C38.4397 18.3973 38.7264 18.3057 39.0131 18.2765C39.2997 18.2473 39.5724 18.274 39.8311 18.3566C40.0899 18.4392 40.3195 18.5684 40.5199 18.7441C40.7755 18.9681 40.9572 19.2053 41.065 19.4556C41.175 19.7079 41.22 19.9655 41.2 20.2284C41.1818 20.4891 41.1077 20.7514 40.9777 21.0153C40.8496 21.277 40.6755 21.5335 40.4553 21.7846L40.2149 22.0589L37.5447 19.7184L37.9821 19.2194L40.0409 21.024L40.0815 20.9778C40.2117 20.8114 40.3138 20.6282 40.3879 20.4282C40.4641 20.2301 40.4841 20.0295 40.4479 19.8263C40.4117 19.6232 40.289 19.4299 40.0797 19.2464C39.9409 19.1248 39.787 19.0425 39.6181 18.9997C39.4511 18.9546 39.2756 18.9526 39.0914 18.9938C38.9073 19.035 38.7197 19.1179 38.5286 19.2426C38.3375 19.3673 38.1473 19.5376 37.958 19.7535L37.8364 19.8923C37.6877 20.062 37.5708 20.242 37.4858 20.4323C37.4049 20.6224 37.3603 20.8132 37.3522 21.0048C37.3462 21.1982 37.3802 21.3839 37.4542 21.5617C37.5304 21.7415 37.6522 21.9047 37.8197 22.0515C38.0356 22.2407 38.257 22.357 38.4841 22.4002C38.7112 22.4433 38.9456 22.4404 39.1873 22.3913L39.2996 23.0098C39.1202 23.059 38.9246 23.0843 38.713 23.0858C38.5013 23.0872 38.2795 23.0448 38.0475 22.9583C37.8177 22.8738 37.5849 22.7282 37.3492 22.5216ZM43.0044 26.5902C43.1498 26.7176 43.3102 26.8057 43.4858 26.8543C43.6613 26.903 43.8341 26.9103 44.0042 26.8763C44.1762 26.84 44.3266 26.7595 44.4554 26.6348L45.037 27.1446C44.8406 27.3465 44.5962 27.4809 44.3037 27.5479C44.0154 27.6146 43.7162 27.6115 43.4062 27.5384C43.0982 27.4632 42.8174 27.3146 42.5641 27.0925C42.2953 26.8569 42.1022 26.6038 41.9847 26.3334C41.8695 26.0648 41.8182 25.79 41.8308 25.5089C41.8457 25.2298 41.9137 24.9543 42.0349 24.6827C42.1603 24.4108 42.3282 24.1548 42.5387 23.9146L42.6604 23.7758C42.8709 23.5357 43.1017 23.3368 43.3529 23.1791C43.6083 23.0211 43.8733 22.9164 44.1482 22.8651C44.4252 22.8158 44.7043 22.8306 44.9857 22.9097C45.2692 22.9907 45.5453 23.149 45.8141 23.3846C46.0939 23.6298 46.2883 23.9014 46.3972 24.1995C46.508 24.4953 46.5369 24.7934 46.484 25.0937C46.4353 25.3938 46.3083 25.6721 46.103 25.9285L45.5214 25.4187C45.6397 25.2614 45.7147 25.0914 45.7463 24.9087C45.78 24.728 45.7661 24.5482 45.7046 24.3696C45.6471 24.1907 45.5369 24.0298 45.3738 23.8869C45.1866 23.7227 44.9962 23.6221 44.8028 23.585C44.6135 23.5476 44.4263 23.5589 44.2413 23.6188C44.0605 23.6785 43.8869 23.7698 43.7206 23.8929C43.5585 24.0157 43.4088 24.1553 43.2717 24.3117L43.1501 24.4505C43.013 24.6069 42.8932 24.7747 42.7908 24.9537C42.6884 25.1328 42.6195 25.3159 42.5841 25.503C42.5508 25.692 42.5642 25.879 42.6241 26.064C42.6881 26.2487 42.8149 26.4241 43.0044 26.5902ZM46.1041 26.9872L46.1708 26.9112C46.3967 26.6534 46.6437 26.4472 46.9117 26.2925C47.1817 26.1357 47.4586 26.0375 47.7425 25.9981C48.0283 25.9564 48.3111 25.9783 48.5907 26.0637C48.8723 26.1469 49.1376 26.2976 49.3866 26.5158C49.6377 26.736 49.823 26.9802 49.9424 27.2485C50.0659 27.5164 50.1257 27.7949 50.1219 28.0837C50.1222 28.3722 50.0623 28.6606 49.9421 28.9488C49.8239 29.2348 49.6519 29.5066 49.4259 29.7644L49.3593 29.8404C49.1334 30.0982 48.8864 30.3044 48.6184 30.459C48.3504 30.6137 48.0723 30.7109 47.7843 30.7506C47.5004 30.7901 47.2176 30.7682 46.936 30.685C46.6586 30.6015 46.3943 30.4497 46.1431 30.2296C45.892 30.0094 45.7057 29.7663 45.5844 29.5002C45.465 29.232 45.4052 28.9536 45.4049 28.665C45.4087 28.3762 45.4697 28.0888 45.5879 27.8028C45.7061 27.5168 45.8782 27.245 46.1041 26.9872ZM46.7821 27.4471L46.7155 27.5231C46.5591 27.7015 46.4323 27.8884 46.3351 28.0837C46.2399 28.2769 46.181 28.4707 46.1585 28.6652C46.1382 28.8617 46.1611 29.0512 46.2271 29.2337C46.295 29.414 46.4138 29.5785 46.5834 29.7272C46.7508 29.874 46.9273 29.9683 47.1127 30.01C47.3023 30.0515 47.4921 30.0484 47.682 30.0006C47.8719 29.9528 48.0564 29.8691 48.2353 29.7493C48.4184 29.6293 48.5882 29.4801 48.7446 29.3016L48.8113 29.2256C48.9657 29.0494 49.0895 28.8637 49.1826 28.6687C49.2797 28.4734 49.3385 28.2774 49.3588 28.081C49.3832 27.8842 49.3624 27.6946 49.2964 27.5121C49.2326 27.3315 49.1159 27.1669 48.9463 27.0182C48.7788 26.8714 48.6003 26.7773 48.4107 26.7358C48.2234 26.6962 48.0326 26.7004 47.8386 26.7485C47.6486 26.7963 47.4632 26.8812 47.2823 27.0031C47.1034 27.1228 46.9366 27.2708 46.7821 27.4471ZM51.4558 33.5422L55.2968 29.1601L55.9115 29.6989L51.4622 34.7749L50.9004 34.2825L51.4558 33.5422ZM49.974 30.3792L50.0348 30.3098C50.2743 30.0366 50.5246 29.8177 50.7857 29.6531C51.051 29.4883 51.3158 29.3795 51.5801 29.3268C51.8467 29.276 52.1035 29.283 52.3507 29.3477C52.602 29.4121 52.8345 29.538 53.0482 29.7253C53.2729 29.9223 53.4342 30.1338 53.5322 30.3599C53.6342 30.5857 53.678 30.8247 53.6634 31.0769C53.653 31.3288 53.5902 31.5893 53.4751 31.8585C53.3599 32.1276 53.1997 32.406 52.9944 32.6935L52.7279 32.9976C52.4739 33.2385 52.2199 33.4327 51.9659 33.5802C51.7142 33.7297 51.4641 33.826 51.2158 33.8694C50.9696 33.9146 50.7269 33.9026 50.4878 33.8332C50.2505 33.7616 50.0185 33.6264 49.7915 33.4275C49.5822 33.244 49.4302 33.0308 49.3353 32.7879C49.2426 32.547 49.2049 32.29 49.2223 32.0169C49.2418 31.7457 49.314 31.47 49.4388 31.1898C49.5677 30.9094 49.7461 30.6392 49.974 30.3792ZM50.6495 30.8486L50.5887 30.918C50.4323 31.0964 50.3031 31.2793 50.2013 31.4666C50.1016 31.6559 50.0382 31.8438 50.011 32.0303C49.9839 32.2169 49.9998 32.3965 50.0589 32.5691C50.12 32.7394 50.2331 32.897 50.3983 33.0419C50.601 33.2195 50.805 33.3224 51.0103 33.3504C51.2178 33.3803 51.423 33.3595 51.6259 33.2881C51.8288 33.2166 52.0247 33.1175 52.2136 32.9909L52.9117 32.1945C52.9915 32.0501 53.0553 31.8996 53.1031 31.7428C53.1551 31.5857 53.18 31.4284 53.1779 31.2707C53.18 31.1128 53.1469 30.9572 53.0787 30.8039C53.0127 30.6526 52.9026 30.5093 52.7483 30.3741C52.5809 30.2274 52.4057 30.1361 52.2227 30.1004C52.0439 30.0644 51.8628 30.0732 51.6795 30.1268C51.4981 30.1782 51.3192 30.2668 51.1427 30.3926C50.9703 30.5181 50.8059 30.6701 50.6495 30.8486ZM53.8398 36.9759C53.5909 36.7576 53.4018 36.5179 53.2725 36.2565C53.1473 35.9948 53.0796 35.7232 53.0693 35.4415C53.0613 35.1617 53.1114 34.8823 53.2197 34.6032C53.328 34.3241 53.4922 34.059 53.7123 33.8078L53.834 33.669C54.0889 33.3782 54.3588 33.157 54.6436 33.0054C54.9304 32.8516 55.2171 32.7601 55.5037 32.7308C55.7904 32.7016 56.0631 32.7283 56.3218 32.8109C56.5805 32.8935 56.8101 33.0227 57.0106 33.1984C57.2661 33.4224 57.4478 33.6596 57.5557 33.9099C57.6657 34.1622 57.7107 34.4198 57.6906 34.6827C57.6725 34.9434 57.5984 35.2057 57.4683 35.4696C57.3402 35.7314 57.1661 35.9878 56.946 36.239L56.7055 36.5132L54.0353 34.1727L54.4727 33.6737L56.5316 35.4783L56.5721 35.4321C56.7023 35.2657 56.8045 35.0825 56.8785 34.8825C56.9547 34.6844 56.9748 34.4838 56.9385 34.2807C56.9023 34.0775 56.7796 33.8842 56.5703 33.7007C56.4315 33.5791 56.2776 33.4968 56.1087 33.454C55.9418 33.4089 55.7662 33.407 55.5821 33.4481C55.3979 33.4893 55.2103 33.5723 55.0192 33.6969C54.8281 33.8216 54.6379 33.9919 54.4487 34.2078L54.327 34.3466C54.1783 34.5163 54.0615 34.6963 53.9764 34.8866C53.8955 35.0767 53.851 35.2676 53.8428 35.4591C53.8369 35.6526 53.8709 35.8382 53.9448 36.016C54.021 36.1958 54.1429 36.3591 54.3103 36.5058C54.5262 36.6951 54.7477 36.8113 54.9747 36.8545C55.2018 36.8977 55.4362 36.8947 55.6779 36.8456L55.7903 37.4641C55.6108 37.5133 55.4153 37.5386 55.2036 37.5401C54.9919 37.5416 54.7701 37.4991 54.5381 37.4126C54.3083 37.3281 54.0756 37.1825 53.8398 36.9759Z" fill="white"/>
</svg>
