<?xml version="1.0" encoding="UTF-8" standalone="no"?>
<!DOCTYPE svg PUBLIC "-//W3C//DTD SVG 1.1//EN" "http://www.w3.org/Graphics/SVG/1.1/DTD/svg11.dtd">
<svg xmlns="http://www.w3.org/2000/svg" version="1.1" viewBox="0.00 0.00 1024.00 1024.00">
<g stroke-width="2.00" fill="none" stroke-linecap="butt">
<path stroke="#378673" vector-effect="non-scaling-stroke" d="
  M 510.98 729.32
  C 542.93 706.72 571.99 683.17 597.93 654.81
  C 623.61 626.75 644.40 592.52 657.74 556.92
  Q 661.09 547.99 663.68 537.84
  C 668.94 517.31 673.34 496.00 674.09 474.75
  C 675.34 439.69 674.59 404.55 675.06 369.55
  A 1.10 1.10 0.0 0 0 674.15 368.44
  Q 642.03 362.96 610.82 353.43
  C 596.07 348.93 581.55 343.20 567.27 337.15
  Q 538.32 324.87 511.73 308.09
  Q 511.46 307.93 511.27 307.99"
/>
<path stroke="#559a81" vector-effect="non-scaling-stroke" d="
  M 511.27 307.99
  Q 510.95 307.76 510.38 307.84
  Q 510.01 307.89 509.61 308.20
  Q 505.48 311.42 497.53 315.74
  Q 469.23 331.08 446.54 340.42
  Q 398.81 360.07 347.41 368.87
  A 0.29 0.28 85.2 0 0 347.18 369.15
  Q 347.31 419.79 347.50 470.50
  C 347.68 520.71 364.00 570.83 391.11 612.47
  C 411.39 643.62 437.02 670.85 465.29 694.48
  Q 487.37 712.94 510.98 729.32"
/>
<path stroke="#76d9a9" vector-effect="non-scaling-stroke" d="
  M 511.27 307.99
  Q 511.24 308.48 510.91 308.80
  Q 510.57 309.11 510.57 309.57
  L 510.54 373.75"
/>
<path stroke="#559a81" vector-effect="non-scaling-stroke" d="
  M 510.54 373.75
  C 492.38 389.65 472.29 405.89 450.22 415.90
  C 425.66 427.04 398.62 434.94 371.60 436.61
  Q 371.24 436.63 371.24 436.99
  Q 371.29 464.75 371.56 492.50
  Q 371.68 505.55 374.09 518.32
  C 375.70 526.86 378.80 535.24 382.13 543.41
  C 392.00 567.61 409.87 584.24 429.34 600.92
  Q 456.36 624.06 483.92 646.58
  Q 494.38 655.13 510.63 669.77"
/>
<path stroke="#76d9a9" vector-effect="non-scaling-stroke" d="
  M 510.63 669.77
  Q 510.12 695.75 510.52 722.89
  Q 510.53 723.92 510.77 726.10
  Q 510.93 727.53 510.98 729.32"
/>
<path stroke="#378673" vector-effect="non-scaling-stroke" d="
  M 510.63 669.77
  Q 520.20 663.69 528.87 656.14
  C 554.00 634.25 579.31 612.65 604.06 590.31
  C 634.09 563.20 649.74 530.50 651.22 489.76
  Q 652.18 463.47 651.62 437.23
  A 0.60 0.60 0.0 0 0 651.06 436.64
  C 613.48 433.22 577.28 421.09 545.68 400.22
  C 534.34 392.74 522.27 382.63 510.54 373.75"
/>
<path stroke="#559a81" vector-effect="non-scaling-stroke" d="
  M 394.7602 388.4691
  A 0.68 0.68 0.0 0 0 394.0790 387.7903
  L 371.4390 387.8298
  A 0.68 0.68 0.0 0 0 370.7602 388.5110
  L 370.7998 411.2109
  A 0.68 0.68 0.0 0 0 371.4810 411.8897
  L 394.1210 411.8502
  A 0.68 0.68 0.0 0 0 394.7998 411.1690
  L 394.7602 388.4691"
/>
<path stroke="#378673" vector-effect="non-scaling-stroke" d="
  M 627.63 388.02
  A 0.61 0.61 0.0 0 0 627.01 388.63
  L 627.01 411.11
  A 0.61 0.61 0.0 0 0 627.61 411.72
  L 651.12 412.07
  A 0.61 0.61 0.0 0 0 651.74 411.46
  L 651.75 388.83
  A 0.61 0.61 0.0 0 0 651.14 388.21
  L 627.63 388.02"
/>
<path stroke="#559a81" vector-effect="non-scaling-stroke" d="
  M 514.76 426.86
  A 0.50 0.50 0.0 0 1 515.55 426.72
  L 526.57 437.19
  Q 527.04 437.64 527.06 436.98
  L 527.34 422.61
  Q 527.35 422.17 527.04 421.88
  L 512.46 407.77
  A 2.02 2.02 0.0 0 0 509.62 407.81
  Q 503.09 414.47 496.52 420.52
  Q 494.46 422.41 494.58 425.73
  Q 494.68 428.29 494.37 437.80
  Q 494.36 438.17 494.63 437.92
  L 506.50 426.94
  A 0.50 0.50 0.0 0 1 507.34 427.31
  L 507.18 447.46
  Q 507.17 448.25 507.96 448.25
  L 513.76 448.27
  Q 514.52 448.27 514.52 447.50
  Q 514.53 438.76 514.32 429.26
  Q 514.29 427.83 514.76 426.86"
/>
<path stroke="#559a81" vector-effect="non-scaling-stroke" d="
  M 501.95 516.07
  L 502.26 537.73
  A 0.69 0.69 0.0 0 0 502.95 538.41
  L 526.55 538.41
  A 0.73 0.72 -0.4 0 0 527.28 537.68
  L 527.13 515.21"
/>
<path stroke="#8ba3a5" vector-effect="non-scaling-stroke" d="
  M 527.13 515.21
  L 527.01 488.97
  A 0.86 0.86 0.0 0 1 527.87 488.11
  L 563.32 488.19
  A 0.63 0.63 0.0 0 1 563.95 488.82
  L 564.21 580.99
  A 0.53 0.52 89.5 0 0 564.74 581.52
  L 589.69 581.49
  A 0.67 0.67 0.0 0 0 590.36 580.81
  L 590.26 544.32
  A 0.67 0.67 0.0 0 1 590.93 543.65
  L 616.02 543.71
  A 2.48 2.47 12.3 0 0 618.29 542.26
  L 629.40 517.99
  A 0.55 0.55 0.0 0 0 628.90 517.21
  L 591.25 516.99
  Q 590.27 516.98 590.27 516.00
  L 590.24 488.50
  A 0.39 0.39 0.0 0 1 590.63 488.11
  L 625.27 488.24
  A 0.76 0.76 0.0 0 0 626.03 487.48
  L 626.00 461.27
  Q 626.00 460.78 625.51 460.78
  Q 536.76 460.72 448.01 460.57
  Q 436.93 460.55 426.25 464.96
  C 400.13 475.72 386.50 499.89 389.43 527.83
  C 391.24 545.12 401.52 561.80 415.46 571.95
  C 431.07 583.32 450.91 581.92 469.12 581.48
  Q 469.38 581.47 469.37 581.21
  L 469.08 556.25
  A 0.48 0.47 87.7 0 0 468.58 555.78
  C 454.14 556.65 441.44 556.82 429.82 547.89
  C 417.62 538.50 413.31 520.88 419.95 506.84
  Q 426.32 493.37 440.38 489.63
  Q 445.65 488.23 460.26 488.25
  Q 480.84 488.27 501.28 488.25
  A 0.60 0.60 0.0 0 1 501.88 488.84
  L 501.95 516.07"
/>
<path stroke="#caf6db" vector-effect="non-scaling-stroke" d="
  M 527.13 515.21
  Q 527.07 516.18 526.64 516.18
  Q 526.48 516.18 526.39 516.04
  Q 526.32 515.92 526.24 515.81
  Q 526.14 515.67 525.97 515.68
  L 501.95 516.07"
/>
<path stroke="#559a81" vector-effect="non-scaling-stroke" d="
  M 527.2596 557.5980
  A 0.35 0.35 0.0 0 0 526.9090 557.2487
  L 502.4291 557.2914
  A 0.35 0.35 0.0 0 0 502.0797 557.6420
  L 502.1204 580.9420
  A 0.35 0.35 0.0 0 0 502.4710 581.2913
  L 526.9509 581.2486
  A 0.35 0.35 0.0 0 0 527.3003 580.8980
  L 527.2596 557.5980"
/>
<path stroke="#559a81" vector-effect="non-scaling-stroke" d="
  M 495.41 614.64
  L 511.02 630.76
  A 0.29 0.29 0.0 0 0 511.43 630.76
  L 526.21 616.44
  A 2.23 0.23 -44.1 0 0 527.65 614.72
  L 511.95 598.52
  A 2.23 0.23 -44.1 0 0 510.19 599.91
  L 495.41 614.23
  A 0.29 0.29 0.0 0 0 495.41 614.64"
/>
</g>
<path fill="#16474b" d="
  M 691.16 580.24
  C 673.29 625.70 643.14 666.32 608.31 700.16
  C 579.36 728.29 545.91 752.01 511.80 773.43
  A 1.87 1.87 0.0 0 1 509.82 773.43
  C 479.82 754.39 452.77 735.32 424.64 710.36
  Q 404.12 692.16 383.60 667.97
  C 358.86 638.81 339.50 605.21 326.13 569.43
  C 317.65 546.73 312.65 521.99 309.97 497.95
  Q 309.04 489.69 308.83 478.01
  C 308.04 434.59 308.62 389.37 308.11 345.01
  Q 308.02 336.77 316.26 335.56
  Q 356.27 329.65 394.95 317.84
  Q 446.11 302.21 491.78 272.78
  Q 505.89 263.69 509.51 261.25
  Q 510.85 260.35 512.70 261.62
  C 549.38 286.79 590.79 307.70 636.00 320.74
  Q 666.00 329.39 703.18 335.35
  C 710.72 336.56 713.81 339.18 713.80 346.82
  Q 713.70 401.82 713.85 456.82
  C 713.87 465.05 713.31 473.83 712.99 482.37
  Q 712.77 488.40 712.35 492.60
  Q 707.82 537.86 691.16 580.24
  Z
  M 510.98 729.32
  C 542.93 706.72 571.99 683.17 597.93 654.81
  C 623.61 626.75 644.40 592.52 657.74 556.92
  Q 661.09 547.99 663.68 537.84
  C 668.94 517.31 673.34 496.00 674.09 474.75
  C 675.34 439.69 674.59 404.55 675.06 369.55
  A 1.10 1.10 0.0 0 0 674.15 368.44
  Q 642.03 362.96 610.82 353.43
  C 596.07 348.93 581.55 343.20 567.27 337.15
  Q 538.32 324.87 511.73 308.09
  Q 511.46 307.93 511.27 307.99
  Q 510.95 307.76 510.38 307.84
  Q 510.01 307.89 509.61 308.20
  Q 505.48 311.42 497.53 315.74
  Q 469.23 331.08 446.54 340.42
  Q 398.81 360.07 347.41 368.87
  A 0.29 0.28 85.2 0 0 347.18 369.15
  Q 347.31 419.79 347.50 470.50
  C 347.68 520.71 364.00 570.83 391.11 612.47
  C 411.39 643.62 437.02 670.85 465.29 694.48
  Q 487.37 712.94 510.98 729.32
  Z"
/>
<path fill="#94ecb7" d="
  M 511.27 307.99
  Q 511.24 308.48 510.91 308.80
  Q 510.57 309.11 510.57 309.57
  L 510.54 373.75
  C 492.38 389.65 472.29 405.89 450.22 415.90
  C 425.66 427.04 398.62 434.94 371.60 436.61
  Q 371.24 436.63 371.24 436.99
  Q 371.29 464.75 371.56 492.50
  Q 371.68 505.55 374.09 518.32
  C 375.70 526.86 378.80 535.24 382.13 543.41
  C 392.00 567.61 409.87 584.24 429.34 600.92
  Q 456.36 624.06 483.92 646.58
  Q 494.38 655.13 510.63 669.77
  Q 510.12 695.75 510.52 722.89
  Q 510.53 723.92 510.77 726.10
  Q 510.93 727.53 510.98 729.32
  Q 487.37 712.94 465.29 694.48
  C 437.02 670.85 411.39 643.62 391.11 612.47
  C 364.00 570.83 347.68 520.71 347.50 470.50
  Q 347.31 419.79 347.18 369.15
  A 0.29 0.28 85.2 0 1 347.41 368.87
  Q 398.81 360.07 446.54 340.42
  Q 469.23 331.08 497.53 315.74
  Q 505.48 311.42 509.61 308.20
  Q 510.01 307.89 510.38 307.84
  Q 510.95 307.76 511.27 307.99
  Z
  M 394.7602 388.4691
  A 0.68 0.68 0.0 0 0 394.0790 387.7903
  L 371.4390 387.8298
  A 0.68 0.68 0.0 0 0 370.7602 388.5110
  L 370.7998 411.2109
  A 0.68 0.68 0.0 0 0 371.4810 411.8897
  L 394.1210 411.8502
  A 0.68 0.68 0.0 0 0 394.7998 411.1690
  L 394.7602 388.4691
  Z"
/>
<path fill="#58c59b" d="
  M 511.27 307.99
  Q 511.46 307.93 511.73 308.09
  Q 538.32 324.87 567.27 337.15
  C 581.55 343.20 596.07 348.93 610.82 353.43
  Q 642.03 362.96 674.15 368.44
  A 1.10 1.10 0.0 0 1 675.06 369.55
  C 674.59 404.55 675.34 439.69 674.09 474.75
  C 673.34 496.00 668.94 517.31 663.68 537.84
  Q 661.09 547.99 657.74 556.92
  C 644.40 592.52 623.61 626.75 597.93 654.81
  C 571.99 683.17 542.93 706.72 510.98 729.32
  Q 510.93 727.53 510.77 726.10
  Q 510.53 723.92 510.52 722.89
  Q 510.12 695.75 510.63 669.77
  Q 520.20 663.69 528.87 656.14
  C 554.00 634.25 579.31 612.65 604.06 590.31
  C 634.09 563.20 649.74 530.50 651.22 489.76
  Q 652.18 463.47 651.62 437.23
  A 0.60 0.60 0.0 0 0 651.06 436.64
  C 613.48 433.22 577.28 421.09 545.68 400.22
  C 534.34 392.74 522.27 382.63 510.54 373.75
  L 510.57 309.57
  Q 510.57 309.11 510.91 308.80
  Q 511.24 308.48 511.27 307.99
  Z
  M 627.63 388.02
  A 0.61 0.61 0.0 0 0 627.01 388.63
  L 627.01 411.11
  A 0.61 0.61 0.0 0 0 627.61 411.72
  L 651.12 412.07
  A 0.61 0.61 0.0 0 0 651.74 411.46
  L 651.75 388.83
  A 0.61 0.61 0.0 0 0 651.14 388.21
  L 627.63 388.02
  Z"
/>
<path fill="#16474b" d="
  M 510.54 373.75
  C 522.27 382.63 534.34 392.74 545.68 400.22
  C 577.28 421.09 613.48 433.22 651.06 436.64
  A 0.60 0.60 0.0 0 1 651.62 437.23
  Q 652.18 463.47 651.22 489.76
  C 649.74 530.50 634.09 563.20 604.06 590.31
  C 579.31 612.65 554.00 634.25 528.87 656.14
  Q 520.20 663.69 510.63 669.77
  Q 494.38 655.13 483.92 646.58
  Q 456.36 624.06 429.34 600.92
  C 409.87 584.24 392.00 567.61 382.13 543.41
  C 378.80 535.24 375.70 526.86 374.09 518.32
  Q 371.68 505.55 371.56 492.50
  Q 371.29 464.75 371.24 436.99
  Q 371.24 436.63 371.60 436.61
  C 398.62 434.94 425.66 427.04 450.22 415.90
  C 472.29 405.89 492.38 389.65 510.54 373.75
  Z
  M 514.76 426.86
  A 0.50 0.50 0.0 0 1 515.55 426.72
  L 526.57 437.19
  Q 527.04 437.64 527.06 436.98
  L 527.34 422.61
  Q 527.35 422.17 527.04 421.88
  L 512.46 407.77
  A 2.02 2.02 0.0 0 0 509.62 407.81
  Q 503.09 414.47 496.52 420.52
  Q 494.46 422.41 494.58 425.73
  Q 494.68 428.29 494.37 437.80
  Q 494.36 438.17 494.63 437.92
  L 506.50 426.94
  A 0.50 0.50 0.0 0 1 507.34 427.31
  L 507.18 447.46
  Q 507.17 448.25 507.96 448.25
  L 513.76 448.27
  Q 514.52 448.27 514.52 447.50
  Q 514.53 438.76 514.32 429.26
  Q 514.29 427.83 514.76 426.86
  Z
  M 501.95 516.07
  L 502.26 537.73
  A 0.69 0.69 0.0 0 0 502.95 538.41
  L 526.55 538.41
  A 0.73 0.72 -0.4 0 0 527.28 537.68
  L 527.13 515.21
  L 527.01 488.97
  A 0.86 0.86 0.0 0 1 527.87 488.11
  L 563.32 488.19
  A 0.63 0.63 0.0 0 1 563.95 488.82
  L 564.21 580.99
  A 0.53 0.52 89.5 0 0 564.74 581.52
  L 589.69 581.49
  A 0.67 0.67 0.0 0 0 590.36 580.81
  L 590.26 544.32
  A 0.67 0.67 0.0 0 1 590.93 543.65
  L 616.02 543.71
  A 2.48 2.47 12.3 0 0 618.29 542.26
  L 629.40 517.99
  A 0.55 0.55 0.0 0 0 628.90 517.21
  L 591.25 516.99
  Q 590.27 516.98 590.27 516.00
  L 590.24 488.50
  A 0.39 0.39 0.0 0 1 590.63 488.11
  L 625.27 488.24
  A 0.76 0.76 0.0 0 0 626.03 487.48
  L 626.00 461.27
  Q 626.00 460.78 625.51 460.78
  Q 536.76 460.72 448.01 460.57
  Q 436.93 460.55 426.25 464.96
  C 400.13 475.72 386.50 499.89 389.43 527.83
  C 391.24 545.12 401.52 561.80 415.46 571.95
  C 431.07 583.32 450.91 581.92 469.12 581.48
  Q 469.38 581.47 469.37 581.21
  L 469.08 556.25
  A 0.48 0.47 87.7 0 0 468.58 555.78
  C 454.14 556.65 441.44 556.82 429.82 547.89
  C 417.62 538.50 413.31 520.88 419.95 506.84
  Q 426.32 493.37 440.38 489.63
  Q 445.65 488.23 460.26 488.25
  Q 480.84 488.27 501.28 488.25
  A 0.60 0.60 0.0 0 1 501.88 488.84
  L 501.95 516.07
  Z
  M 527.2596 557.5980
  A 0.35 0.35 0.0 0 0 526.9090 557.2487
  L 502.4291 557.2914
  A 0.35 0.35 0.0 0 0 502.0797 557.6420
  L 502.1204 580.9420
  A 0.35 0.35 0.0 0 0 502.4710 581.2913
  L 526.9509 581.2486
  A 0.35 0.35 0.0 0 0 527.3003 580.8980
  L 527.2596 557.5980
  Z
  M 495.41 614.64
  L 511.02 630.76
  A 0.29 0.29 0.0 0 0 511.43 630.76
  L 526.21 616.44
  A 2.23 0.23 -44.1 0 0 527.65 614.72
  L 511.95 598.52
  A 2.23 0.23 -44.1 0 0 510.19 599.91
  L 495.41 614.23
  A 0.29 0.29 0.0 0 0 495.41 614.64
  Z"
/>
<rect fill="#16474b" x="-12.00" y="-12.03" transform="translate(382.78,399.84) rotate(-0.1)" width="24.00" height="24.06" rx="0.68"/>
<path fill="#16474b" d="
  M 627.63 388.02
  L 651.14 388.21
  A 0.61 0.61 0.0 0 1 651.75 388.83
  L 651.74 411.46
  A 0.61 0.61 0.0 0 1 651.12 412.07
  L 627.61 411.72
  A 0.61 0.61 0.0 0 1 627.01 411.11
  L 627.01 388.63
  A 0.61 0.61 0.0 0 1 627.63 388.02
  Z"
/>
<path fill="#94ecb7" d="
  M 514.76 426.86
  Q 514.29 427.83 514.32 429.26
  Q 514.53 438.76 514.52 447.50
  Q 514.52 448.27 513.76 448.27
  L 507.96 448.25
  Q 507.17 448.25 507.18 447.46
  L 507.34 427.31
  A 0.50 0.50 0.0 0 0 506.50 426.94
  L 494.63 437.92
  Q 494.36 438.17 494.37 437.80
  Q 494.68 428.29 494.58 425.73
  Q 494.46 422.41 496.52 420.52
  Q 503.09 414.47 509.62 407.81
  A 2.02 2.02 0.0 0 1 512.46 407.77
  L 527.04 421.88
  Q 527.35 422.17 527.34 422.61
  L 527.06 436.98
  Q 527.04 437.64 526.57 437.19
  L 515.55 426.72
  A 0.50 0.50 0.0 0 0 514.76 426.86
  Z"
/>
<path fill="#ffffff" d="
  M 527.13 515.21
  Q 527.07 516.18 526.64 516.18
  Q 526.48 516.18 526.39 516.04
  Q 526.32 515.92 526.24 515.81
  Q 526.14 515.67 525.97 515.68
  L 501.95 516.07
  L 501.88 488.84
  A 0.60 0.60 0.0 0 0 501.28 488.25
  Q 480.84 488.27 460.26 488.25
  Q 445.65 488.23 440.38 489.63
  Q 426.32 493.37 419.95 506.84
  C 413.31 520.88 417.62 538.50 429.82 547.89
  C 441.44 556.82 454.14 556.65 468.58 555.78
  A 0.48 0.47 87.7 0 1 469.08 556.25
  L 469.37 581.21
  Q 469.38 581.47 469.12 581.48
  C 450.91 581.92 431.07 583.32 415.46 571.95
  C 401.52 561.80 391.24 545.12 389.43 527.83
  C 386.50 499.89 400.13 475.72 426.25 464.96
  Q 436.93 460.55 448.01 460.57
  Q 536.76 460.72 625.51 460.78
  Q 626.00 460.78 626.00 461.27
  L 626.03 487.48
  A 0.76 0.76 0.0 0 1 625.27 488.24
  L 590.63 488.11
  A 0.39 0.39 0.0 0 0 590.24 488.50
  L 590.27 516.00
  Q 590.27 516.98 591.25 516.99
  L 628.90 517.21
  A 0.55 0.55 0.0 0 1 629.40 517.99
  L 618.29 542.26
  A 2.48 2.47 12.3 0 1 616.02 543.71
  L 590.93 543.65
  A 0.67 0.67 0.0 0 0 590.26 544.32
  L 590.36 580.81
  A 0.67 0.67 0.0 0 1 589.69 581.49
  L 564.74 581.52
  A 0.53 0.52 89.5 0 1 564.21 580.99
  L 563.95 488.82
  A 0.63 0.63 0.0 0 0 563.32 488.19
  L 527.87 488.11
  A 0.86 0.86 0.0 0 0 527.01 488.97
  L 527.13 515.21
  Z"
/>
<path fill="#94ecb7" d="
  M 527.13 515.21
  L 527.28 537.68
  A 0.73 0.72 -0.4 0 1 526.55 538.41
  L 502.95 538.41
  A 0.69 0.69 0.0 0 1 502.26 537.73
  L 501.95 516.07
  L 525.97 515.68
  Q 526.14 515.67 526.24 515.81
  Q 526.32 515.92 526.39 516.04
  Q 526.48 516.18 526.64 516.18
  Q 527.07 516.18 527.13 515.21
  Z"
/>
<rect fill="#94ecb7" x="-12.59" y="-12.00" transform="translate(514.69,569.27) rotate(-0.1)" width="25.18" height="24.00" rx="0.35"/>
<path fill="#94ecb7" d="
  M 495.41 614.64
  A 0.29 0.29 0.0 0 1 495.41 614.23
  L 510.19 599.91
  A 2.23 0.23 -44.1 0 1 511.95 598.52
  L 527.65 614.72
  A 2.23 0.23 -44.1 0 1 526.21 616.44
  L 511.43 630.76
  A 0.29 0.29 0.0 0 1 511.02 630.76
  L 495.41 614.64
  Z"
/>
<rect fill="#58c59b" x="372.04" y="784.93" width="278.82" height="19.06" rx="9.45"/>
</svg>
